<?xml version="1.0" encoding="UTF-8" standalone="no"?>
<svg width="16px" height="16px" viewBox="0 0 16 16" version="1.1" xmlns="http://www.w3.org/2000/svg" xmlns:xlink="http://www.w3.org/1999/xlink" xmlns:sketch="http://www.bohemiancoding.com/sketch/ns">
    <!-- Generator: Sketch 3.0.3 (7891) - http://www.bohemiancoding.com/sketch -->
    <title>board-white</title>
    <desc>Created with Sketch.</desc>
    <defs></defs>
    <g id="Page-1" stroke="none" stroke-width="1" fill="none" fill-rule="evenodd" sketch:type="MSPage">
        <path d="M0,2 L0,6 L6,6 L6,2 L0,2 Z M1,3 L1,5 L5,5 L5,3 L1,3 Z M8,2 L8,6 L14,6 L14,2 L8,2 Z M9,3 L9,5 L13,5 L13,3 L9,3 Z M8,8 L8,12 L14,12 L14,8 L8,8 Z M9,9 L9,11 L13,11 L13,9 L9,9 Z M0,8 L0,12 L6,12 L6,8 L0,8 Z M1,9 L1,11 L5,11 L5,9 L1,9 Z" id="Rectangle-182" fill="#FFFFFF" sketch:type="MSShapeGroup"></path>
    </g>
</svg>