<?xml version="1.0" encoding="UTF-8" standalone="no"?>
<svg width="16px" height="16px" viewBox="0 0 16 16" version="1.1" xmlns="http://www.w3.org/2000/svg" xmlns:xlink="http://www.w3.org/1999/xlink" xmlns:sketch="http://www.bohemiancoding.com/sketch/ns">
    <!-- Generator: Sketch 3.0.3 (7891) - http://www.bohemiancoding.com/sketch -->
    <title>board</title>
    <desc>Created with Sketch.</desc>
    <defs></defs>
    <g id="Page-1" stroke="none" stroke-width="1" fill="none" fill-rule="evenodd" sketch:type="MSPage">
        <g id="Board" sketch:type="MSLayerGroup" transform="translate(0.000000, 2.000000)" fill="#BDC6D3">
            <path d="M0,0 L0,4 L6,4 L6,0 L0,0 Z M1,1 L1,3 L5,3 L5,1 L1,1 Z M8,0 L8,4 L14,4 L14,0 L8,0 Z M9,1 L9,3 L13,3 L13,1 L9,1 Z M8,6 L8,10 L14,10 L14,6 L8,6 Z M9,7 L9,9 L13,9 L13,7 L9,7 Z M0,6 L0,10 L6,10 L6,6 L0,6 Z M1,7 L1,9 L5,9 L5,7 L1,7 Z" id="Rectangle-182" sketch:type="MSShapeGroup"></path>
        </g>
    </g>
</svg>