<?xml version="1.0" encoding="UTF-8" standalone="no"?>
<svg width="16px" height="16px" viewBox="0 0 16 16" version="1.1" xmlns="http://www.w3.org/2000/svg" xmlns:xlink="http://www.w3.org/1999/xlink" xmlns:sketch="http://www.bohemiancoding.com/sketch/ns">
    <!-- Generator: Sketch 3.0.3 (7891) - http://www.bohemiancoding.com/sketch -->
    <title>board-private</title>
    <desc>Created with Sketch.</desc>
    <defs></defs>
    <g id="Page-1" stroke="none" stroke-width="1" fill="none" fill-rule="evenodd" sketch:type="MSPage">
        <g id="Board-6" sketch:type="MSLayerGroup" transform="translate(0.000000, 2.000000)" fill="#BEC7D3">
            <path d="M0,0 L0,4 L6,4 L6,0 L0,0 L0,0 Z M1,1 L1,3 L5,3 L5,1 L1,1 L1,1 Z M8,0 L8,2.9698257 L8,4 L14,4 L14,0 L8,0 L8,0 Z M9,1 L9,3 L13,3 L13,1 L9,1 L9,1 Z M0,6 L0,10 L6,10 L6,6 L0,6 L0,6 Z M1,7 L1,9 L5,9 L5,7 L1,7 L1,7 Z" id="Rectangle-182" sketch:type="MSShapeGroup"></path>
        </g>
        <path d="M12.5,8 C10.005,8 10.004,10.6336 10.004,10.6336 C9.449,10.6336 9,11.1114667 9,11.7002667 L9,14.9333333 C9,15.5221333 9.449,16 10.004,16 L14.995,16 C15.55,16 16,15.5221333 16,14.9333333 L16,11.7002667 C15.999,11.1114667 15.549,10.6336 14.995,10.6336 C14.995,10.6336 14.995,8 12.5,8 L12.5,8 Z M12,14.5 L12,12 L13,12 L13,14.5 L12,14.5 L12,14.5 Z M11.008,11 C11.008,11 11.0075,9 12.5145,9 C14.0215,9 14.021,11 14.021,11 L11.008,11 L11.008,11 Z" id="Shape-9" fill="#BEC7D3" sketch:type="MSShapeGroup"></path>
    </g>
</svg>