<?xml version="1.0" encoding="UTF-8" standalone="no"?>
<svg width="22px" height="22px" viewBox="0 0 22 22" version="1.1" xmlns="http://www.w3.org/2000/svg" xmlns:xlink="http://www.w3.org/1999/xlink" xmlns:sketch="http://www.bohemiancoding.com/sketch/ns">
    <!-- Generator: Sketch 3.0.3 (7891) - http://www.bohemiancoding.com/sketch -->
    <title>checkbox-checked-gray</title>
    <desc>Created with Sketch.</desc>
    <defs></defs>
    <g id="Page-1" stroke="none" stroke-width="1" fill="none" fill-rule="evenodd" sketch:type="MSPage">
        <path d="M11,0 C17.075,0 22,4.925 22,11 C22,17.075 17.075,22 11,22 C4.925,22 0,17.075 0,11 C0,4.925 4.925,0 11,0 Z M17.2215,7.8395 L9.68,15.2245 C9.642,15.2875 9.596,15.352 9.534,15.414 L9.1805,15.7675 C8.9855,15.9625 8.7555,16.0495 8.667,15.961 L5.0755,12.2025 C4.987,12.1145 5.074,11.8845 5.269,11.6895 L5.6225,11.336 C5.818,11.1405 6.0475,11.054 6.136,11.142 L8.8285,13.959 L16.1605,6.7785 C16.3555,6.5835 16.6725,6.5835 16.8675,6.7785 L17.2215,7.1325 C17.4165,7.3275 17.4165,7.644 17.2215,7.8395 Z" id="Checked" fill="#BEC7D3" sketch:type="MSShapeGroup"></path>
    </g>
</svg>