<?xml version="1.0" encoding="UTF-8" standalone="no"?>
<svg width="16px" height="16px" viewBox="0 0 16 16" version="1.1" xmlns="http://www.w3.org/2000/svg" xmlns:xlink="http://www.w3.org/1999/xlink" xmlns:sketch="http://www.bohemiancoding.com/sketch/ns">
    <!-- Generator: Sketch 3.0.3 (7891) - http://www.bohemiancoding.com/sketch -->
    <title>list</title>
    <desc>Created with Sketch.</desc>
    <defs></defs>
    <g id="Page-1" stroke="none" stroke-width="1" fill="none" fill-rule="evenodd" sketch:type="MSPage">
        <path d="M0,2 L0,6 L14,6 L14,2 L0,2 L0,2 Z M13,5 L1,5 L1,3 L13,3 L13,5 L13,5 Z M0,8 L14,8 L14,7 L0,7 L0,8 L0,8 Z M0,10 L14,10 L14,9 L0,9 L0,10 L0,10 Z M0,12 L14,12 L14,11 L0,11 L0,12 L0,12 Z" id="List" fill="#BDC6D3" sketch:type="MSShapeGroup"></path>
    </g>
</svg>