<?xml version="1.0" encoding="UTF-8" standalone="no"?>
<svg width="16px" height="16px" viewBox="0 0 16 16" version="1.1" xmlns="http://www.w3.org/2000/svg" xmlns:xlink="http://www.w3.org/1999/xlink" xmlns:sketch="http://www.bohemiancoding.com/sketch/ns">
    <!-- Generator: Sketch 3.0.3 (7891) - http://www.bohemiancoding.com/sketch -->
    <title>list-private-white</title>
    <desc>Created with Sketch.</desc>
    <defs></defs>
    <g id="Page-1" stroke="none" stroke-width="1" fill="none" fill-rule="evenodd" sketch:type="MSPage">
        <path d="M0,2 L0,6 L14,6 L14,2 L0,2 L0,2 Z M13,5 L1,5 L1,3 L13,3 L13,5 L13,5 Z M0,8 L9,8 L9,7 L0,7 L0,8 L0,8 Z M0,10 L7,10 L7,9 L0,9 L0,10 L0,10 Z M0,12 L7,12 L7,11 L0,11 L0,12 L0,12 Z" id="List-6-2" fill="#FFFFFF" sketch:type="MSShapeGroup"></path>
        <path d="M12.5,8 C10.005,8 10.004,10.6336 10.004,10.6336 C9.449,10.6336 9,11.1114667 9,11.7002667 L9,14.9333333 C9,15.5221333 9.449,16 10.004,16 L14.995,16 C15.55,16 16,15.5221333 16,14.9333333 L16,11.7002667 C15.999,11.1114667 15.549,10.6336 14.995,10.6336 C14.995,10.6336 14.995,8 12.5,8 L12.5,8 Z M12,14.5 L12,12 L13,12 L13,14.5 L12,14.5 L12,14.5 Z M11.008,11 C11.008,11 11.0075,9 12.5145,9 C14.0215,9 14.021,11 14.021,11 L11.008,11 L11.008,11 Z" id="Shape-10-2" fill="#FFFFFF" sketch:type="MSShapeGroup"></path>
    </g>
</svg>