<?xml version="1.0" encoding="UTF-8" standalone="no"?>
<svg width="17px" height="16px" viewBox="0 0 17 16" version="1.1" xmlns="http://www.w3.org/2000/svg" xmlns:xlink="http://www.w3.org/1999/xlink" xmlns:sketch="http://www.bohemiancoding.com/sketch/ns">
    <!-- Generator: Sketch 3.0.3 (7891) - http://www.bohemiancoding.com/sketch -->
    <title>project</title>
    <desc>Created with Sketch.</desc>
    <defs></defs>
    <g id="Page-1" stroke="none" stroke-width="1" fill="none" fill-rule="evenodd" sketch:type="MSPage">
        <path d="M10,2.6992264 C10.0114367,2.76217767 10.0173078,2.82913561 10.0173078,2.89999999 L10.0173078,4.00000001 L10,4.00000001 L10,2.6992264 Z M11.0173078,2.89999999 C11.0173078,2.80428791 11.0114325,2.71141859 11,2.62157591 L11,2 C11,1.5 10.5,1 10,1 L7,1 C6.5,1 6,1.5 6,2 L6,4 L2,4 C1.5,4 1,4.5 1,5 L1,11 L7,11 L7,10 L10,10 L10,11 L16,11 L16,5.20107692 C16,4.42676923 15.5,4 15,4 L11.0173078,4 L11.0173078,2.89999999 Z M15.5,16 C16.5522847,16 17,15.5522848 17,14.5 L17,12 L17,11 L16,11 L1,11 L7.10542736e-14,11 L7.10542736e-14,12 L7.10542736e-14,14.5 C7.10542736e-14,15.5 0.5,16 1.5,16 L15.5,16 Z M12,1.5 C12,0.44771525 11.5522847,0 10.5,0 L6.5,0 C5.48758482,0 5.06792968,0.496373086 5,1.5 C4.99732488,1.53952348 5,1.96013043 5,2 L5,3 L1.5,3 C0.44771525,3 0,3.44771525 0,4.5 L0,11 L17,11 L17,4.5 C17,3.24876865 16.6247524,3 15.5,3 L12,3 L12,1.5 Z M7,2.50000001 C7,2.50356272 7.72585503,2.00094711 8.5,2.00000001 C9.2241875,1.99911403 10,2.50000001 10,2.50000001 L10,4.00000001 L7,4.00000001 L7,2.50000001 Z M15,15 C15.5,15 16,14.5 16,14 L16,12 L1,12 L1,14 C1,14 1.5,15 2,15 L15,15 Z" id="Shape-2" fill="#BEC7D3" sketch:type="MSShapeGroup"></path>
    </g>
</svg>