<?xml version="1.0" encoding="UTF-8" standalone="no"?>
<svg width="28px" height="16px" viewBox="0 0 28 16" version="1.1" xmlns="http://www.w3.org/2000/svg" xmlns:xlink="http://www.w3.org/1999/xlink" xmlns:sketch="http://www.bohemiancoding.com/sketch/ns">
    <!-- Generator: Sketch 3.0.3 (7891) - http://www.bohemiancoding.com/sketch -->
    <title>team</title>
    <desc>Created with Sketch.</desc>
    <defs></defs>
    <g id="Page-1" stroke="none" stroke-width="1" fill="none" fill-rule="evenodd" sketch:type="MSPage">
        <path d="M21.6978595,12.2793934 C21.6978595,12.2793934 21.7886359,12.8774217 21.8168079,13.099614 L27.001499,13.099614 C27.001499,12.3384871 26.8867242,11.2677093 26.8867242,11.2677093 C26.8867242,10.7973235 25.5438589,10.2607527 24.4086318,9.94873795 C23.8211934,9.78445746 23.3255749,9.42044028 23.3255749,9.42044028 C23.2525364,9.37552907 23.3151409,8.97369192 23.3151409,8.97369192 L22.8988213,8.90514323 C22.8988213,8.87205075 22.8675191,8.37920931 22.8675191,8.37920931 C23.3057502,8.22202007 23.2598403,7.29543087 23.2598403,7.29543087 C23.53843,7.46089323 23.7178961,6.72931324 23.7178961,6.72931324 C24.0465694,5.71053787 23.5551246,5.7731772 23.5551246,5.7731772 C23.7105923,5.01086848 23.5551246,3.8975432 23.5551246,3.8975432 C23.336009,1.83635499 19.9668467,2.48638567 20.4718559,3.13759823 C19.2750677,2.77830855 19.6903438,5.22124205 19.6903438,5.22124205 L19.8990252,5.82399778 C19.4889662,6.1088294 19.7738164,6.45275473 19.7873807,6.84750064 C19.8092922,7.43371013 20.1431826,7.31079524 20.1431826,7.31079524 C20.1640507,8.27402252 20.6074988,8.40166491 20.6074988,8.40166491 C20.6909714,9.00678439 20.6074988,8.95241819 20.6074988,8.95241819 L20.2433497,8.95241819 C20.2610876,9.10724368 20.2120475,9.36607408 20.2120475,9.36607408 C19.7466878,9.58590264 19.6465207,9.71590877 19.1842912,9.93100984 C18.8180552,10.1035634 18.4226039,10.2749352 18.0688888,10.4226694 C18.2149658,10.4853087 18.3662599,10.5444024 18.527988,10.5893136 C19.9793676,10.9899689 21.6978595,11.6766377 21.6978595,12.2793934 C21.6978595,12.2793934 21.6978595,11.6766377 21.6978595,12.2793934 L21.6978595,12.2793934 L21.6978595,12.2793934 Z M7.24374951,11.6766377 C7.24374951,11.6766377 8.70138956,11.1046107 9.84496401,10.5680399 C10.0077356,10.4924 10.131901,10.426215 10.244589,10.3623938 C9.85539808,10.2052046 9.43907855,10.0598341 9.03214969,9.94873795 C8.44366795,9.78445746 7.94909287,9.42044028 7.94909287,9.42044028 C7.87709777,9.37552907 7.9386588,8.97369192 7.9386588,8.97369192 L7.52233927,8.90514323 C7.52233927,8.87205075 7.49103705,8.37920931 7.49103705,8.37920931 C7.92718132,8.22202007 7.8823148,7.29543087 7.8823148,7.29543087 C8.16090456,7.46089323 8.34037062,6.72931324 8.34037062,6.72931324 C8.66904394,5.71053787 8.17759908,5.7731772 8.17759908,5.7731772 C8.33306677,5.01086848 8.17759908,3.8975432 8.17759908,3.8975432 C7.95848354,1.83635499 4.58932124,2.48638567 5.09433039,3.13759823 C3.89649877,2.77830855 4.3128183,5.22124205 4.3128183,5.22124205 L4.52149977,5.82399778 C4.11248409,6.1088294 4.39629089,6.45275473 4.41089859,6.84750064 C4.43072333,7.43371013 4.76461368,7.31079524 4.76461368,7.31079524 C4.78548182,8.27402252 5.22892994,8.40166491 5.22892994,8.40166491 C5.31135912,9.00678439 5.22892994,8.95241819 5.22892994,8.95241819 L4.86373737,8.95241819 C4.8814753,9.10724368 4.83243515,9.36607408 4.83243515,9.36607408 C4.36707548,9.58590264 4.26690838,9.71590877 3.80467893,9.93100984 C2.91256565,10.351757 1.77107802,10.7985053 1.77107802,10.7985053 C1.06364785,10.9946964 1,11.6281809 1,11.6281809 L1,13.1007958 L6.13982455,13.1007958 C6.17843062,12.9199691 6.4747583,11.8905569 7.24374951,11.6766377 C7.24374951,11.6766377 6.4747583,11.8905569 7.24374951,11.6766377 L7.24374951,11.6766377 L7.24374951,11.6766377 Z M17.5269446,11.5311999 C16.7746479,11.3231901 16.1433865,10.8575317 16.1433865,10.8575317 C16.0494798,10.8008018 16.1287788,10.2855047 16.1287788,10.2855047 L15.5955976,10.198046 C15.5955976,10.1554986 15.5559481,9.52437788 15.5559481,9.52437788 C16.1152145,9.3234593 16.0567837,8.13922158 16.0567837,8.13922158 C16.4125856,8.35077702 16.6431786,7.41473284 16.6431786,7.41473284 C17.0636717,6.11230772 16.4344971,6.19149327 16.4344971,6.19149327 C16.6337879,5.21762912 16.4344971,3.79465285 16.4344971,3.79465285 C16.1548639,1.15671014 11.8455916,1.98756755 12.4925042,2.81842495 C10.9597388,2.36103972 11.4918766,5.48236889 11.4918766,5.48236889 L11.7589888,6.25886009 C11.2362418,6.62051353 11.5993475,7.05898877 11.6170854,7.5660127 C11.6431706,8.31177518 12.0699242,8.15694969 12.0699242,8.15694969 C12.0970528,9.38846237 12.6646664,9.55156098 12.6646664,9.55156098 C12.7721374,10.3256884 12.6646664,10.2571397 12.6646664,10.2571397 L12.1993067,10.2571397 C12.2212183,10.4545127 12.1596573,10.7830737 12.1596573,10.7830737 C11.5628283,11.0667234 11.436576,11.2333676 10.844964,11.5087443 C9.70243297,12.0453151 8.24374951,12.6173421 8.24374951,12.6173421 C7.33702853,12.8690812 7.25772958,13.6786649 7.25772958,13.6786649 L7.25772958,15 L20.8439365,15 C20.8439365,14.0225902 20.6968161,13.2224615 20.6968161,13.2224615 C20.6978595,12.6197058 18.9793676,11.9318552 17.5269446,11.5311999 C17.5269446,11.5311999 18.9793676,11.9318552 17.5269446,11.5311999 L17.5269446,11.5311999 L17.5269446,11.5311999 Z" id="Shape" stroke="#BEC7D3" sketch:type="MSShapeGroup"></path>
    </g>
</svg>