<?xml version="1.0" encoding="UTF-8" standalone="no"?>
<svg width="16px" height="16px" viewBox="0 0 16 16" version="1.1" xmlns="http://www.w3.org/2000/svg" xmlns:xlink="http://www.w3.org/1999/xlink" xmlns:sketch="http://www.bohemiancoding.com/sketch/ns">
    <!-- Generator: Sketch 3.0.3 (7891) - http://www.bohemiancoding.com/sketch -->
    <title>timeline-private-white</title>
    <desc>Created with Sketch.</desc>
    <defs></defs>
    <g id="Page-1" stroke="none" stroke-width="1" fill="none" fill-rule="evenodd" sketch:type="MSPage">
        <path d="M6,0 L6,2 L0,2 L0,6 L4,6 L4,8 L3,8 L2,8 L2,12 L6,12 L6,14 L7,14 L7,12 L7,9 L8,9 L8,8 L8,6 L10,6 L10,2 L7,2 L7,0 L6,0 L6,0 Z M1,3 L1,5 L9,5 L9,3 L1,3 L1,3 Z M5,6 L5,8 L7,8 L7,6 L5,6 L5,6 Z M3,9 L3,11 L6,11 L6,9 L3,9 L3,9 Z" id="Path-115-2" fill="#FFFFFF" sketch:type="MSShapeGroup"></path>
        <path d="M12.5,8 C10.005,8 10.004,10.6336 10.004,10.6336 C9.449,10.6336 9,11.1114667 9,11.7002667 L9,14.9333333 C9,15.5221333 9.449,16 10.004,16 L14.995,16 C15.55,16 16,15.5221333 16,14.9333333 L16,11.7002667 C15.999,11.1114667 15.549,10.6336 14.995,10.6336 C14.995,10.6336 14.995,8 12.5,8 L12.5,8 Z M12,14.5 L12,12 L13,12 L13,14.5 L12,14.5 L12,14.5 Z M11.008,11 C11.008,11 11.0075,9 12.5145,9 C14.0215,9 14.021,11 14.021,11 L11.008,11 L11.008,11 Z" id="Shape-15-2" fill="#FFFFFF" sketch:type="MSShapeGroup"></path>
        <path d="M12.5,8 C10.005,8 10.004,10.6336 10.004,10.6336 C9.449,10.6336 9,11.1114667 9,11.7002667 L9,14.9333333 C9,15.5221333 9.449,16 10.004,16 L14.995,16 C15.55,16 16,15.5221333 16,14.9333333 L16,11.7002667 C15.999,11.1114667 15.549,10.6336 14.995,10.6336 C14.995,10.6336 14.995,8 12.5,8 L12.5,8 Z M12,14.5 L12,12 L13,12 L13,14.5 L12,14.5 L12,14.5 Z M11.008,11 C11.008,11 11.0075,9 12.5145,9 C14.0215,9 14.021,11 14.021,11 L11.008,11 L11.008,11 Z" id="Shape-11-2" fill="#FFFFFF" sketch:type="MSShapeGroup"></path>
    </g>
</svg>