<?xml version="1.0" encoding="UTF-8" standalone="no"?>
<svg width="16px" height="16px" viewBox="0 0 16 16" version="1.1" xmlns="http://www.w3.org/2000/svg" xmlns:xlink="http://www.w3.org/1999/xlink" xmlns:sketch="http://www.bohemiancoding.com/sketch/ns">
    <!-- Generator: Sketch 3.0.3 (7891) - http://www.bohemiancoding.com/sketch -->
    <title>timeline</title>
    <desc>Created with Sketch.</desc>
    <defs></defs>
    <g id="Page-1" stroke="none" stroke-width="1" fill="none" fill-rule="evenodd" sketch:type="MSPage">
        <path d="M7,0 L7,2 L0,2 L2.4492936e-16,6 L5,6 L5,8 L3,8 L3,12 L7,12 L7,14 L8,14 L8,9 L14,9 L14,5 L10,5 L10,2 L8,2 L8,0 L7,0 Z M1,3 L1,5 L9,5 L9,3 L1,3 Z M6,6 L6,8 L13,8 L13,6 L6,6 Z M4,9 L4,11 L7,11 L7,9 L4,9 Z" id="Path-112" fill="#BDC6D3" sketch:type="MSShapeGroup"></path>
    </g>
</svg>