<?xml version="1.0" encoding="UTF-8" standalone="no"?>
<svg width="16px" height="16px" viewBox="0 0 16 16" version="1.1" xmlns="http://www.w3.org/2000/svg" xmlns:xlink="http://www.w3.org/1999/xlink" xmlns:sketch="http://www.bohemiancoding.com/sketch/ns">
    <!-- Generator: Sketch 3.0.3 (7891) - http://www.bohemiancoding.com/sketch -->
    <title>view</title>
    <desc>Created with Sketch.</desc>
    <defs></defs>
    <g id="Page-1" stroke="none" stroke-width="1" fill="none" fill-rule="evenodd" sketch:type="MSPage">
        <path d="M0,2 L0,13 L4,13 L4,2 L0,2 L0,2 Z M1,12 L1,3 L3,3 L3,12 L1,12 L1,12 Z M14,7 L14,6 L5,6 L5,7 L14,7 L14,7 Z M14,5 L14,4 L5,4 L5,5 L14,5 L14,5 Z M14,3 L14,2 L5,2 L5,3 L14,3 L14,3 Z M5,9 L14,9 L14,8 L5,8 L5,9 L5,9 Z M5,11 L14,11 L14,10 L5,10 L5,11 L5,11 Z M5,13 L14,13 L14,12 L5,12 L5,13 L5,13 Z" id="List-4-2" fill="#BDC6D3" sketch:type="MSShapeGroup"></path>
    </g>
</svg>