<?xml version="1.0" encoding="UTF-8" standalone="no"?>
<svg width="16px" height="16px" viewBox="0 0 16 16" version="1.1" xmlns="http://www.w3.org/2000/svg" xmlns:xlink="http://www.w3.org/1999/xlink" xmlns:sketch="http://www.bohemiancoding.com/sketch/ns">
    <!-- Generator: Sketch 3.0.3 (7891) - http://www.bohemiancoding.com/sketch -->
    <title>view-private</title>
    <desc>Created with Sketch.</desc>
    <defs></defs>
    <g id="Page-1" stroke="none" stroke-width="1" fill="none" fill-rule="evenodd" sketch:type="MSPage">
        <path d="M0,2 L0,13 L4,13 L4,2 L0,2 L0,2 Z M1,12 L1,3 L3,3 L3,12 L1,12 L1,12 Z M14,7 L14,6 L5,6 L5,7 L14,7 L14,7 Z M14,5 L14,4 L5,4 L5,5 L14,5 L14,5 Z M14,3 L14,2 L5,2 L5,3 L14,3 L14,3 Z M5,9 L9,9 L9,8 L5,8 L5,9 L5,9 Z M5,11 L8,11 L8,10 L5,10 L5,11 L5,11 Z M5,13 L8,13 L8,12 L5,12 L5,13 L5,13 Z" id="List-4" fill="#BEC7D3" sketch:type="MSShapeGroup"></path>
        <path d="M12.5,8 C10.005,8 10.004,10.6336 10.004,10.6336 C9.449,10.6336 9,11.1114667 9,11.7002667 L9,14.9333333 C9,15.5221333 9.449,16 10.004,16 L14.995,16 C15.55,16 16,15.5221333 16,14.9333333 L16,11.7002667 C15.999,11.1114667 15.549,10.6336 14.995,10.6336 C14.995,10.6336 14.995,8 12.5,8 L12.5,8 Z M12,14.5 L12,12 L13,12 L13,14.5 L12,14.5 L12,14.5 Z M11.008,11 C11.008,11 11.0075,9 12.5145,9 C14.0215,9 14.021,11 14.021,11 L11.008,11 L11.008,11 Z" id="Shape-12" fill="#BEC7D3" sketch:type="MSShapeGroup"></path>
    </g>
</svg>